<svg version="1.2" xmlns="http://www.w3.org/2000/svg" viewBox="0 0 81 38" width="81" height="38">
	<defs>
		<linearGradient id="g1" x2="1" gradientUnits="userSpaceOnUse" gradientTransform="matrix(30.885,0,0,30.185,.162,15.644)">
			<stop offset="0" stop-color="#1d2d64"/>
			<stop offset=".309" stop-color="#1f4987"/>
			<stop offset=".583" stop-color="#1c275d"/>
		</linearGradient>
		<linearGradient id="g2" x2="1" gradientUnits="userSpaceOnUse" gradientTransform="matrix(18.136,0,0,22.83,13.669,17.61)">
			<stop offset=".485" stop-color="#eaa637"/>
			<stop offset=".854" stop-color="#de7933"/>
		</linearGradient>
		<linearGradient id="g3" x2="1" gradientUnits="userSpaceOnUse" gradientTransform="matrix(5.962,0,0,5.637,13.669,26.286)">
			<stop offset=".049" stop-color="#eaa637"/>
			<stop offset=".416" stop-color="#de7933"/>
		</linearGradient>
		<linearGradient id="g4" x2="1" gradientUnits="userSpaceOnUse" gradientTransform="matrix(9.133,0,0,18.609,22.654,19.72)">
			<stop offset=".049" stop-color="#eaa637"/>
			<stop offset=".383" stop-color="#de7933"/>
		</linearGradient>
		<linearGradient id="g5" x2="1" gradientUnits="userSpaceOnUse" gradientTransform="matrix(18.752,0,0,5.153,12.179,3.117)">
			<stop offset="0" stop-color="#1f4987"/>
			<stop offset=".275" stop-color="#1c275d"/>
		</linearGradient>
		<linearGradient id="g6" x2="1" gradientUnits="userSpaceOnUse" gradientTransform="matrix(4.37,0,0,17.479,.151,21.727)">
			<stop offset="0" stop-color="#1f4987"/>
			<stop offset=".275" stop-color="#1c275d"/>
		</linearGradient>
		<linearGradient id="g7" x2="1" gradientUnits="userSpaceOnUse" gradientTransform="matrix(31.486,-1.301,1.217,29.463,6.38,23.531)">
			<stop offset=".477" stop-color="#e79f35"/>
			<stop offset=".759" stop-color="#e6902e"/>
			<stop offset="1" stop-color="#df692c"/>
		</linearGradient>
		<linearGradient id="g8" x2="1" gradientUnits="userSpaceOnUse" gradientTransform="matrix(4.505,-0.186,.719,17.41,32.834,16.399)">
			<stop offset=".081" stop-color="#e69636"/>
			<stop offset=".836" stop-color="#d7622f"/>
		</linearGradient>
		<linearGradient id="g9" x2="1" gradientUnits="userSpaceOnUse" gradientTransform="matrix(18.129,-0.749,.244,5.903,6.557,35.322)">
			<stop offset="0" stop-color="#d7622f"/>
			<stop offset=".377" stop-color="#e6902e"/>
			<stop offset=".802" stop-color="#d5642a"/>
		</linearGradient>
		<linearGradient id="g10" x2="1" gradientUnits="userSpaceOnUse" gradientTransform="matrix(16.584,0,0,22.645,5.19,17.517)">
			<stop offset=".32" stop-color="#275394"/>
			<stop offset=".486" stop-color="#224181"/>
			<stop offset="1" stop-color="#142458"/>
		</linearGradient>
		<linearGradient id="g11" x2="1" gradientUnits="userSpaceOnUse" gradientTransform="matrix(12.729,0,0,13.494,5.191,22.092)">
			<stop offset="0" stop-color="#18234e"/>
			<stop offset=".488" stop-color="#2a61a1"/>
			<stop offset=".617" stop-color="#295d9c"/>
			<stop offset="1" stop-color="#192854"/>
		</linearGradient>
	</defs>
	<style>
		.s0 { fill: url(#g1) } 
		.s1 { fill: url(#g2) } 
		.s2 { fill: url(#g3) } 
		.s3 { fill: url(#g4) } 
		.s4 { fill: url(#g5) } 
		.s5 { fill: url(#g6) } 
		.s6 { fill: url(#g7) } 
		.s7 { fill: url(#g8) } 
		.s8 { fill: url(#g9) } 
		.s9 { fill: url(#g10) } 
		.s10 { fill: url(#g11) } 
		.s11 { fill: #22285c } 
		.s12 { fill: #ec7317 } 
	</style>
	<filter id="f0">
		<feFlood flood-color="#ffffff" flood-opacity="1" />
		<feBlend mode="normal" in2="SourceGraphic"/>
		<feComposite in2="SourceAlpha" operator="in" />
	</filter>
	<g id="Layer_2" filter="url(#f0)">
		<path class="s0" d="m4.66 30.63c-1.69-2.74-2.66-5.95-2.66-9.38 0-7.02 4.08-13.12 10.08-16.2 2.64-1.35 5.65-2.12 8.84-2.12 3.68 0 7.12 1.02 10.02 2.78q0 0 0 0c-3.27-3.25-7.78-5.26-12.75-5.26-10.01 0-18.12 8.12-18.12 18.12 0 4.63 1.73 8.86 4.59 12.06z"/>
	</g>
	<filter id="f1">
		<feFlood flood-color="#ffffff" flood-opacity="1" />
		<feBlend mode="normal" in2="SourceGraphic"/>
		<feComposite in2="SourceAlpha" operator="in" />
	</filter>
	<g id="Layer_8" filter="url(#f1)">
		<path class="s1" d="m21.81 10.42l1.03-4.32 2.58 0.07c1.05 0.02 2.08 0.31 2.98 0.83 0.85 0.5 1.79 1.26 2.46 2.44 1.69 2.97 0.34 6.17 0.16 6.58q-0.06 0.12-0.09 0.19c-0.69 1.45-2.01 2.82-4.35 3.87l2.83 8.84h-4.49l-2.59-7.84h-2.19l-0.89 3.35c0 0-0.95 4.28-4.2 4.49h-1.48l1.93-8.24 1.87-0.02 1.09-4.2q2.74-0.02 5.48-0.04 0.61 0 1.17-0.24 0 0 0.01 0 0.19-0.09 0.36-0.2c0.98-0.59 1.55-1.68 1.55-2.82v-0.16c-0.09-0.72-0.29-1.27-0.49-1.54-0.09-0.11-0.18-0.21-0.18-0.21q-0.28-0.29-0.57-0.45-0.6-0.33-1.28-0.34z"/>
		<g id="Layer_9">
			<path class="s2" d="m14.63 24.39c0 0 3.13 0.17 4.9-1.03 0 0-0.89 6.43-5.96 5.56z"/>
			<path class="s3" d="m22.55 21.74c0 0 5.6-0.36 8.72-11.42 0 0 2.46 6.61-4.69 9.75l2.83 8.85h-4.49z"/>
		</g>
	</g>
	<filter id="f2">
		<feFlood flood-color="#ffffff" flood-opacity="1" />
		<feBlend mode="normal" in2="SourceGraphic"/>
		<feComposite in2="SourceAlpha" operator="in" />
	</filter>
	<g id="Layer_3" filter="url(#f2)">
		<path class="s4" d="m12.08 5.05c0 0 2.8-3.81 5.93-4.59 0 0 7.46-0.52 12.82 5.14 0 0-8.8-5.67-18.75-0.55z"/>
		<path class="s5" d="m4.43 30.36c0 0-5.19-7.99-0.35-17.47 0 0-3.32 1.21-3.99 4.69 0 0-0.73 7.33 4.34 12.78z"/>
	</g>
	<filter id="f3">
		<feFlood flood-color="#ffffff" flood-opacity="1" />
		<feBlend mode="normal" in2="SourceGraphic"/>
		<feComposite in2="SourceAlpha" operator="in" />
	</filter>
	<g id="Layer_4" filter="url(#f3)">
		<path class="s6" d="m18.12 37.61c9.98 0.62 18.58-6.98 19.2-16.97 0.31-4.96-1.42-9.59-4.45-13.05q0 0 0 0c1.57 3.01 2.37 6.5 2.15 10.17-0.2 3.19-1.15 6.14-2.66 8.69-3.44 5.8-9.78 9.5-16.8 9.07-3.42-0.22-6.56-1.39-9.19-3.24 3.02 3.05 7.13 5.04 11.75 5.33z"/>
		<g id="Layer_5">
			<path class="s7" d="m33.13 25.01c0 0 4.39-8.65-0.27-17.42 0 0 4.43 4.8 4.49 11.4 0 0 0.84 1.09-4.22 6.02z"/>
			<path class="s8" d="m24.58 33.69c0 0-2.97 3.66-4.91 3.95 0 0-7.65 0.6-13.3-5.36 0 0 8.01 6.27 18.21 1.41z"/>
		</g>
	</g>
	<filter id="f4">
		<feFlood flood-color="#ffffff" flood-opacity="1" />
		<feBlend mode="normal" in2="SourceGraphic"/>
		<feComposite in2="SourceAlpha" operator="in" />
	</filter>
	<g id="Layer_7" filter="url(#f4)">
		<g id="Layer_6">
			<path class="s9" d="m20.67 10.59l1-4.49h-4.64c-0.61-0.02-3.07-0.07-5.24 1.73-1.69 1.4-2.28 3.15-2.47 3.82q-2.11 8.53-4.22 17.05c0.58 0.07 1.27 0.05 1.98-0.19 2.81-0.93 3.52-4.43 3.57-4.69q0.44-2.02 0.89-4.04l5.01 0.05 1.27-4.6-5.07 0.06q0.25-1.02 0.5-2.04c0.18-0.78 0.53-1.24 0.75-1.48 1-1.08 2.59-1.13 3.29-1.16q0.38-0.01 0.58 0.01 1.4-0.01 2.8-0.03z"/>
		</g>
		<path class="s10" d="m5.1 28.7l1.95-7.87c0 0 2.48-3.93 5.7-5.53l5.07-0.06-1.27 4.6-5.01-0.06-0.89 4.05c0 0-0.81 5.34-5.55 4.87z"/>
	</g>
	<filter id="f5">
		<feFlood flood-color="#ffffff" flood-opacity="1" />
		<feBlend mode="normal" in2="SourceGraphic"/>
		<feComposite in2="SourceAlpha" operator="in" />
	</filter>
	<g id="Layer_10" filter="url(#f5)">
		<g>
			<g>
				<path class="s11" d="m38.58 10.55h4.1v0.74h-3.12v2.28h2.88v0.73h-2.88v3.09h-0.98v-6.84z"/>
				<path class="s11" d="m44.82 11.1c0.01 0.3-0.24 0.55-0.64 0.55-0.35 0-0.59-0.25-0.59-0.55 0-0.31 0.26-0.56 0.62-0.56 0.37 0 0.61 0.25 0.61 0.56zm-1.11 6.29v-4.91h0.99v4.91z"/>
				<path class="s11" d="m46.31 13.81c0-0.51-0.01-0.92-0.05-1.33h0.88l0.06 0.81h0.02c0.28-0.46 0.91-0.92 1.81-0.92 0.76 0 1.93 0.41 1.93 2.09v2.93h-0.99v-2.83c0-0.79-0.33-1.45-1.27-1.45-0.65 0-1.16 0.42-1.33 0.91q-0.07 0.18-0.07 0.42v2.95h-0.99v-3.58z"/>
				<path class="s11" d="m57.25 10.19v5.93c0 0.44 0.01 0.94 0.05 1.27h-0.89l-0.05-0.85h-0.02c-0.31 0.55-0.97 0.96-1.87 0.96-1.32 0-2.33-1-2.33-2.49-0.02-1.64 1.12-2.64 2.45-2.64 0.83 0 1.4 0.35 1.65 0.75h0.02v-2.93h0.99zm-0.99 4.29c0-0.11-0.01-0.27-0.05-0.38-0.14-0.57-0.69-1.03-1.43-1.03-1.03 0-1.64 0.81-1.64 1.9 0 0.99 0.54 1.81 1.62 1.81 0.66 0 1.27-0.39 1.45-1.06q0.05-0.18 0.05-0.39v-0.85z"/>
				<path class="s12" d="m63.55 13.81c0-0.51-0.01-0.92-0.04-1.33h0.88l0.06 0.81h0.02c0.27-0.46 0.9-0.92 1.81-0.92 0.75 0 1.93 0.41 1.93 2.09v2.93h-1v-2.83c0-0.79-0.32-1.45-1.26-1.45-0.66 0-1.16 0.42-1.33 0.91q-0.07 0.18-0.07 0.42v2.95h-1v-3.58z"/>
				<path class="s11" d="m38.58 18.66c0.5-0.09 1.21-0.14 1.89-0.14 1.05 0 1.73 0.17 2.2 0.55 0.39 0.31 0.6 0.77 0.6 1.3 0 0.91-0.63 1.5-1.43 1.75v0.03c0.58 0.18 0.93 0.67 1.11 1.38 0.25 0.95 0.43 1.61 0.59 1.87h-1.02c-0.12-0.19-0.29-0.78-0.51-1.63-0.22-0.94-0.63-1.3-1.52-1.33h-0.93v2.96h-0.98v-6.74zm0.98 3.11h1.01c1.05 0 1.71-0.52 1.71-1.3 0-0.88-0.71-1.27-1.75-1.28q-0.72 0.01-0.97 0.09c0 0 0 2.49 0 2.49z"/>
				<path class="s11" d="m45.18 23.11c0.02 1.21 0.88 1.71 1.87 1.71 0.71 0 1.14-0.12 1.52-0.26l0.16 0.64c-0.35 0.14-0.94 0.3-1.81 0.3-1.69 0-2.69-0.99-2.69-2.47 0-1.48 0.97-2.65 2.56-2.65 1.79 0 2.26 1.41 2.26 2.32q-0.01 0.27-0.03 0.41zm2.91-0.64c0.01-0.57-0.26-1.45-1.38-1.45-1 0-1.44 0.83-1.52 1.45z"/>
				<path class="s11" d="m50.24 21.82c0-0.5-0.01-0.92-0.05-1.33h0.88l0.06 0.82h0.02c0.27-0.47 0.91-0.93 1.81-0.93 0.76 0 1.93 0.41 1.93 2.09v2.93h-0.99v-2.83c0-0.79-0.33-1.45-1.27-1.45-0.65 0-1.16 0.42-1.33 0.92q-0.07 0.17-0.07 0.41v2.95h-0.99z"/>
				<path class="s11" d="m57.52 19.08v1.41h1.42v0.68h-1.42v2.65c0 0.61 0.19 0.96 0.75 0.96q0.39-0.01 0.57-0.07l0.05 0.67q-0.3 0.12-0.88 0.12-0.71 0-1.07-0.37c-0.29-0.27-0.39-0.7-0.39-1.28v-2.68h-0.85v-0.68h0.85v-1.18z"/>
				<path class="s11" d="m59.66 24.88c0-0.38 0.28-0.64 0.67-0.64 0.4 0 0.67 0.26 0.67 0.64 0 0.36-0.26 0.64-0.68 0.64-0.39-0.01-0.66-0.28-0.66-0.64z"/>
				<path class="s11" d="m65.99 25.22c-0.26 0.12-0.83 0.28-1.57 0.28-1.65 0-2.72-1-2.72-2.5 0-1.51 1.15-2.61 2.94-2.61 0.58 0 1.1 0.13 1.37 0.25l-0.22 0.7c-0.24-0.13-0.61-0.24-1.16-0.24-1.25 0-1.93 0.84-1.93 1.86 0 1.14 0.82 1.84 1.9 1.84 0.57 0 0.94-0.13 1.22-0.25z"/>
				<path class="s11" d="m71.9 22.91c0 1.81-1.4 2.6-2.72 2.6-1.48 0-2.62-0.97-2.62-2.52 0-1.64 1.19-2.61 2.71-2.61 1.57 0 2.63 1.03 2.63 2.53zm-4.34 0.05c0 1.07 0.69 1.88 1.66 1.88 0.95 0 1.66-0.8 1.66-1.9 0-0.84-0.46-1.89-1.64-1.89-1.17 0-1.68 0.98-1.68 1.91z"/>
				<path class="s11" d="m73.02 21.82c0-0.5-0.02-0.92-0.05-1.33h0.87l0.05 0.8h0.03c0.3-0.47 0.81-0.91 1.72-0.91 0.74 0 1.31 0.41 1.54 0.99h0.03q0.26-0.41 0.61-0.64c0.32-0.23 0.69-0.35 1.2-0.35 0.73 0 1.8 0.43 1.8 2.13v2.89h-0.97v-2.78c0-0.94-0.38-1.51-1.19-1.51-0.56 0-1 0.38-1.17 0.81q-0.08 0.19-0.08 0.45v3.03h-0.97v-2.94c0-0.78-0.39-1.34-1.14-1.34-0.62 0-1.07 0.44-1.23 0.89q-0.09 0.2-0.08 0.43v2.96h-0.97z"/>
			</g>
		</g>
		<g id="Layer_11">
			<path class="s12" d="m62.35 11.53q-0.3-0.38-0.75-0.62c-1.14-0.58-2.1-0.12-2.58 0.21q-0.34 0.24-0.57 0.59c-0.73 1.14-0.12 2.27-0.01 2.45q0.02 0.04 0.04 0.08l0.42 0.73 1.39 2.41c0.04 0.08 0.14 0.12 0.23 0.09 0.07-0.01 0.08-0.05 0.09-0.07q0.03-0.05 0.04-0.09 0.02-0.04 0.03-0.07l1.86-3.3c0.56-1.1 0.17-1.94-0.19-2.41zm-1.89 2.53c-0.59 0-1.06-0.45-1.06-0.99 0-0.55 0.48-0.99 1.06-0.99 0.58 0 1.06 0.44 1.06 0.99 0 0.54-0.48 0.99-1.06 0.99z"/>
			<path class="s12" d="m60.46 12.43c0.35 0 0.64 0.29 0.64 0.64 0 0.35-0.29 0.64-0.64 0.64-0.36 0-0.64-0.29-0.64-0.64 0-0.35 0.28-0.64 0.64-0.64z"/>
		</g>
	</g>
</svg>