<?xml version="1.0" encoding="utf-8"?>
<!-- Generator: Adobe Illustrator 16.0.0, SVG Export Plug-In . SVG Version: 6.00 Build 0)  -->
<!DOCTYPE svg PUBLIC "-//W3C//DTD SVG 1.1//EN" "http://www.w3.org/Graphics/SVG/1.1/DTD/svg11.dtd">
<svg version="1.1" id="Layer_1" xmlns="http://www.w3.org/2000/svg" xmlns:xlink="http://www.w3.org/1999/xlink" x="0px" y="0px"
	 width="81.38px" height="37.492px" viewBox="91.058 74.447 81.38 37.492" enable-background="new 91.058 74.447 81.38 37.492"
	 xml:space="preserve">
<g id="Layer_2">
	
		<linearGradient id="SVGID_1_" gradientUnits="userSpaceOnUse" x1="2847.5547" y1="-3077.0469" x2="3146.2109" y2="-3077.0469" gradientTransform="matrix(0.1042 0 0 -0.1042 -205.552 -230.8646)">
		<stop  offset="0" style="stop-color:#1D2D64"/>
		<stop  offset="0.3089" style="stop-color:#1F4987"/>
		<stop  offset="0.583" style="stop-color:#1C275D"/>
	</linearGradient>
	<path fill="url(#SVGID_1_)" d="M95.697,104.863c-1.704-2.764-2.683-5.995-2.683-9.448c0-7.079,4.117-13.228,10.159-16.325
		c2.659-1.363,5.692-2.135,8.911-2.135c3.707,0,7.166,1.024,10.094,2.795c0,0.001,0,0.001,0,0.001
		c-3.297-3.272-7.84-5.293-12.854-5.293c-10.083,0-18.256,8.174-18.256,18.256C91.068,97.379,92.818,101.637,95.697,104.863z"/>
</g>
<g id="Layer_8">
	
		<linearGradient id="SVGID_2_" gradientUnits="userSpaceOnUse" x1="2978.1719" y1="-3096.0508" x2="3153.5508" y2="-3096.0508" gradientTransform="matrix(0.1042 0 0 -0.1042 -205.552 -230.8646)">
		<stop  offset="0.4848" style="stop-color:#EAA637"/>
		<stop  offset="0.8545" style="stop-color:#DE7933"/>
	</linearGradient>
	<path fill="url(#SVGID_2_)" d="M112.972,84.495l1.038-4.352l2.6,0.071c1.057,0.028,2.096,0.312,3.01,0.843
		c0.855,0.496,1.799,1.269,2.475,2.455c1.705,2.992,0.346,6.213,0.16,6.627c-0.037,0.084-0.068,0.15-0.09,0.197
		c-0.693,1.462-2.024,2.843-4.379,3.894l2.846,8.91h-4.521l-2.606-7.899h-2.207l-0.904,3.378c0,0-0.957,4.308-4.229,4.521h-1.49
		l1.941-8.298l1.889-0.027l1.091-4.229c1.843-0.014,3.686-0.027,5.528-0.041c0.404-0.003,0.807-0.078,1.177-0.242
		c0.003-0.001,0.007-0.002,0.009-0.004c0.131-0.058,0.254-0.124,0.369-0.194c0.984-0.6,1.561-1.694,1.561-2.847V87.1
		c-0.092-0.723-0.295-1.279-0.498-1.552c-0.086-0.113-0.184-0.217-0.184-0.217c-0.184-0.195-0.384-0.34-0.576-0.451
		c-0.39-0.222-0.834-0.331-1.283-0.339L112.972,84.495z"/>
	<g id="Layer_9">
		
			<linearGradient id="SVGID_3_" gradientUnits="userSpaceOnUse" x1="2978.1719" y1="-3179.9468" x2="3035.8281" y2="-3179.9468" gradientTransform="matrix(0.1042 0 0 -0.1042 -205.552 -230.8646)">
			<stop  offset="0.0492" style="stop-color:#EAA637"/>
			<stop  offset="0.4162" style="stop-color:#DE7933"/>
		</linearGradient>
		<path fill="url(#SVGID_3_)" d="M105.74,98.577c0,0,3.153,0.173,4.939-1.038c0,0-0.899,6.476-6.006,5.599L105.74,98.577z"/>
		
			<linearGradient id="SVGID_4_" gradientUnits="userSpaceOnUse" x1="3065.0547" y1="-3116.457" x2="3153.3721" y2="-3116.457" gradientTransform="matrix(0.1042 0 0 -0.1042 -205.552 -230.8646)">
			<stop  offset="0.0492" style="stop-color:#EAA637"/>
			<stop  offset="0.3832" style="stop-color:#DE7933"/>
		</linearGradient>
		<path fill="url(#SVGID_4_)" d="M113.725,95.91c0,0,5.641-0.365,8.787-11.516c0,0,2.48,6.669-4.727,9.833l2.846,8.91h-4.521
			L113.725,95.91z"/>
	</g>
</g>
<g id="Layer_3">
	
		<linearGradient id="SVGID_5_" gradientUnits="userSpaceOnUse" x1="2963.7578" y1="-2955.9058" x2="3145.0938" y2="-2955.9058" gradientTransform="matrix(0.1042 0 0 -0.1042 -205.552 -230.8646)">
		<stop  offset="0" style="stop-color:#1D2D64"/>
		<stop  offset="0" style="stop-color:#1F4987"/>
		<stop  offset="0.2747" style="stop-color:#1C275D"/>
	</linearGradient>
	<path fill="url(#SVGID_5_)" d="M103.173,79.091c0,0,2.819-3.839,5.976-4.631c0,0,7.518-0.519,12.913,5.178
		C122.062,79.638,113.201,73.932,103.173,79.091z"/>
	
		<linearGradient id="SVGID_6_" gradientUnits="userSpaceOnUse" x1="2847.4531" y1="-3135.8633" x2="2889.7109" y2="-3135.8633" gradientTransform="matrix(0.1042 0 0 -0.1042 -205.552 -230.8646)">
		<stop  offset="0" style="stop-color:#1D2D64"/>
		<stop  offset="0" style="stop-color:#1F4987"/>
		<stop  offset="0.2747" style="stop-color:#1C275D"/>
	</linearGradient>
	<path fill="url(#SVGID_6_)" d="M95.459,104.591c0,0-5.229-8.049-0.344-17.606c0,0-3.35,1.222-4.02,4.732
		C91.095,91.717,90.351,99.096,95.459,104.591z"/>
</g>
<g id="Layer_4">
	
		<linearGradient id="SVGID_7_" gradientUnits="userSpaceOnUse" x1="2789.2539" y1="-3230.519" x2="3094.0156" y2="-3230.519" gradientTransform="matrix(0.1041 -0.0043 -0.0043 -0.1041 -206.8244 -226.5931)">
		<stop  offset="0.4769" style="stop-color:#E79F35"/>
		<stop  offset="0.7589" style="stop-color:#E6902E"/>
		<stop  offset="1" style="stop-color:#DF692C"/>
	</linearGradient>
	<path fill="url(#SVGID_7_)" d="M109.256,111.894c10.063,0.623,18.726-7.03,19.35-17.093c0.309-5.005-1.428-9.662-4.49-13.156
		c0,0,0,0.001,0.002,0.001c1.586,3.031,2.395,6.547,2.165,10.247c-0.198,3.212-1.156,6.192-2.681,8.762
		c-3.465,5.84-9.855,9.568-16.922,9.131c-3.446-0.213-6.611-1.391-9.263-3.262C100.458,109.596,104.6,111.605,109.256,111.894z"/>
	<g id="Layer_5">
		
			<linearGradient id="SVGID_8_" gradientUnits="userSpaceOnUse" x1="3047.7236" y1="-3172.1641" x2="3091.3242" y2="-3172.1641" gradientTransform="matrix(0.1041 -0.0043 -0.0043 -0.1041 -206.8244 -226.5931)">
			<stop  offset="0.081" style="stop-color:#E69636"/>
			<stop  offset="0.8358" style="stop-color:#D7622F"/>
		</linearGradient>
		<path fill="url(#SVGID_8_)" d="M124.379,99.201c0,0,4.431-8.718-0.264-17.558c0,0,4.463,4.838,4.516,11.49
			C128.631,93.134,129.477,94.234,124.379,99.201z"/>
		
			<linearGradient id="SVGID_9_" gradientUnits="userSpaceOnUse" x1="2786.2578" y1="-3344.5254" x2="2961.7344" y2="-3344.5254" gradientTransform="matrix(0.1041 -0.0043 -0.0043 -0.1041 -206.8244 -226.5931)">
			<stop  offset="0" style="stop-color:#D7622F"/>
			<stop  offset="0.3771" style="stop-color:#E6902E"/>
			<stop  offset="0.802" style="stop-color:#D5642A"/>
		</linearGradient>
		<path fill="url(#SVGID_9_)" d="M115.768,107.95c0,0-2.99,3.685-4.947,3.973c0,0-7.705,0.604-13.405-5.401
			C97.416,106.521,105.486,112.848,115.768,107.95z"/>
	</g>
</g>
<g id="Layer_7">
	<g id="Layer_6">
		
			<linearGradient id="SVGID_10_" gradientUnits="userSpaceOnUse" x1="2896.1797" y1="-3095.1563" x2="3056.5469" y2="-3095.1563" gradientTransform="matrix(0.1042 0 0 -0.1042 -205.552 -230.8646)">
			<stop  offset="0.3201" style="stop-color:#275394"/>
			<stop  offset="0.4857" style="stop-color:#224181"/>
			<stop  offset="1" style="stop-color:#142458"/>
		</linearGradient>
		<path fill="url(#SVGID_10_)" d="M111.828,84.671l1.01-4.521h-4.681c-0.613-0.028-3.089-0.07-5.276,1.74
			c-1.708,1.411-2.299,3.169-2.49,3.852c-1.419,5.725-2.837,11.45-4.257,17.174c0.588,0.07,1.282,0.053,2.002-0.188
			c2.831-0.939,3.546-4.468,3.595-4.723c0.298-1.359,0.597-2.72,0.895-4.079l5.053,0.053l1.277-4.628l-5.107,0.053
			c0.168-0.685,0.334-1.368,0.502-2.052c0.179-0.785,0.535-1.253,0.754-1.492c1.005-1.088,2.613-1.14,3.318-1.165
			c0.251-0.009,0.456-0.002,0.586,0.005C109.949,84.691,110.889,84.681,111.828,84.671z"/>
	</g>
	
		<linearGradient id="SVGID_11_" gradientUnits="userSpaceOnUse" x1="2896.1875" y1="-3139.3926" x2="3019.2734" y2="-3139.3926" gradientTransform="matrix(0.1042 0 0 -0.1042 -205.552 -230.8646)">
		<stop  offset="0" style="stop-color:#18234E"/>
		<stop  offset="0.4877" style="stop-color:#2A61A1"/>
		<stop  offset="0.6173" style="stop-color:#295D9C"/>
		<stop  offset="1" style="stop-color:#192854"/>
	</linearGradient>
	<path fill="url(#SVGID_11_)" d="M96.134,102.923l1.967-7.937c0,0,2.502-3.961,5.747-5.574l5.107-0.053l-1.277,4.628l-5.053-0.053
		l-0.895,4.079C101.731,98.014,100.92,103.392,96.134,102.923z"/>
</g>
<g id="Layer_10">
	<g>
		<g>
			<path fill="#22285C" d="M129.878,84.633h4.131v0.747h-3.143v2.291h2.902v0.736h-2.902v3.118h-0.991v-6.892H129.878z"/>
			<path fill="#22285C" d="M136.158,85.184c0.012,0.306-0.239,0.552-0.637,0.552c-0.354,0-0.602-0.246-0.602-0.552
				c0-0.316,0.262-0.562,0.625-0.562C135.919,84.622,136.158,84.868,136.158,85.184z M135.044,91.523v-4.947h1.001v4.947H135.044z"
				/>
			<path fill="#22285C" d="M137.66,87.915c0-0.511-0.011-0.93-0.046-1.338h0.89l0.057,0.818h0.022c0.274-0.47,0.912-0.93,1.823-0.93
				c0.762,0,1.945,0.409,1.945,2.106v2.953h-1.002v-2.852c0-0.797-0.329-1.462-1.275-1.462c-0.659,0-1.172,0.419-1.342,0.92
				c-0.047,0.112-0.07,0.266-0.07,0.419v2.976h-1.002V87.915L137.66,87.915z"/>
			<path fill="#22285C" d="M148.688,84.265v5.981c0,0.439,0.011,0.941,0.045,1.278h-0.898l-0.047-0.859h-0.023
				c-0.307,0.551-0.978,0.97-1.876,0.97c-1.333,0-2.356-1.012-2.356-2.514c-0.011-1.646,1.128-2.659,2.469-2.659
				c0.843,0,1.412,0.358,1.662,0.757h0.023v-2.954H148.688L148.688,84.265z M147.686,88.588c0-0.111-0.012-0.265-0.046-0.378
				c-0.146-0.573-0.693-1.042-1.444-1.042c-1.037,0-1.651,0.819-1.651,1.912c0,1.002,0.548,1.829,1.628,1.829
				c0.671,0,1.285-0.398,1.467-1.073c0.035-0.123,0.045-0.246,0.045-0.389v-0.859H147.686z"/>
			<path fill="#EC7317" d="M155.037,87.915c0-0.511-0.011-0.93-0.046-1.338h0.889l0.058,0.818h0.022
				c0.273-0.47,0.911-0.93,1.823-0.93c0.761,0,1.945,0.409,1.945,2.106v2.953h-1.002v-2.852c0-0.797-0.33-1.462-1.275-1.462
				c-0.659,0-1.172,0.419-1.342,0.92c-0.047,0.112-0.07,0.266-0.07,0.419v2.976h-1.002V87.915L155.037,87.915z"/>
			<path fill="#22285C" d="M129.878,92.8c0.5-0.092,1.217-0.143,1.899-0.143c1.059,0,1.741,0.174,2.221,0.562
				c0.386,0.308,0.601,0.776,0.601,1.309c0,0.91-0.636,1.512-1.445,1.758v0.031c0.592,0.184,0.944,0.674,1.127,1.39
				c0.249,0.961,0.433,1.625,0.592,1.891h-1.025c-0.125-0.194-0.297-0.787-0.513-1.646c-0.229-0.95-0.638-1.309-1.536-1.338h-0.933
				v2.984h-0.99V92.8H129.878z M130.866,95.938h1.012c1.061,0,1.729-0.522,1.729-1.31c0-0.89-0.716-1.278-1.763-1.287
				c-0.479,0-0.819,0.041-0.979,0.082V95.938z"/>
			<path fill="#22285C" d="M136.522,97.287c0.023,1.217,0.888,1.718,1.889,1.718c0.717,0,1.149-0.112,1.526-0.256l0.169,0.644
				c-0.353,0.142-0.955,0.306-1.832,0.306c-1.695,0-2.708-1.002-2.708-2.494c0-1.493,0.979-2.668,2.584-2.668
				c1.799,0,2.276,1.421,2.276,2.331c0,0.184-0.023,0.329-0.034,0.419H136.522z M139.459,96.643c0.01-0.573-0.264-1.461-1.389-1.461
				c-1.013,0-1.458,0.838-1.537,1.461H139.459z"/>
			<path fill="#22285C" d="M141.62,95.989c0-0.511-0.011-0.93-0.046-1.338h0.889l0.058,0.818h0.023
				c0.272-0.47,0.91-0.929,1.822-0.929c0.761,0,1.945,0.408,1.945,2.105v2.953h-1.002v-2.852c0-0.797-0.329-1.461-1.275-1.461
				c-0.659,0-1.171,0.419-1.342,0.919c-0.047,0.112-0.069,0.266-0.069,0.419v2.975h-1.003V95.989L141.62,95.989z"/>
			<path fill="#22285C" d="M148.961,93.23v1.421h1.432v0.685h-1.432v2.668c0,0.614,0.193,0.96,0.751,0.96
				c0.262,0,0.454-0.03,0.581-0.062l0.045,0.674c-0.195,0.071-0.501,0.123-0.888,0.123c-0.467,0-0.842-0.134-1.081-0.379
				c-0.284-0.266-0.387-0.705-0.387-1.288v-2.699h-0.854v-0.685h0.854v-1.187L148.961,93.23z"/>
			<path fill="#22285C" d="M151.111,99.065c0-0.378,0.284-0.644,0.683-0.644s0.671,0.266,0.671,0.644
				c0,0.368-0.263,0.646-0.683,0.646C151.385,99.709,151.111,99.434,151.111,99.065z"/>
			<path fill="#22285C" d="M157.495,99.413c-0.262,0.122-0.841,0.286-1.583,0.286c-1.661,0-2.741-1.012-2.741-2.525
				c0-1.523,1.162-2.628,2.959-2.628c0.591,0,1.114,0.134,1.387,0.256l-0.229,0.696c-0.239-0.123-0.614-0.234-1.161-0.234
				c-1.263,0-1.946,0.839-1.946,1.871c0,1.145,0.821,1.851,1.912,1.851c0.569,0,0.945-0.133,1.23-0.245L157.495,99.413z"/>
			<path fill="#22285C" d="M163.446,97.083c0,1.829-1.41,2.626-2.742,2.626c-1.489,0-2.638-0.98-2.638-2.544
				c0-1.655,1.204-2.628,2.73-2.628C162.377,94.537,163.446,95.57,163.446,97.083z M159.078,97.133c0,1.084,0.693,1.901,1.672,1.901
				c0.957,0,1.671-0.808,1.671-1.922c0-0.839-0.466-1.9-1.649-1.9C159.587,95.211,159.078,96.194,159.078,97.133z"/>
			<path fill="#22285C" d="M164.573,95.989c0-0.511-0.013-0.93-0.045-1.338h0.875l0.047,0.797h0.032
				c0.308-0.471,0.82-0.911,1.731-0.911c0.751,0,1.319,0.409,1.559,0.991h0.022c0.172-0.275,0.387-0.49,0.615-0.644
				c0.33-0.226,0.695-0.348,1.218-0.348c0.728,0,1.81,0.429,1.81,2.146v2.914h-0.978v-2.802c0-0.95-0.388-1.523-1.197-1.523
				c-0.567,0-1.013,0.379-1.182,0.819c-0.048,0.122-0.081,0.285-0.081,0.45v3.057h-0.978v-2.962c0-0.788-0.387-1.359-1.149-1.359
				c-0.626,0-1.08,0.45-1.24,0.899c-0.059,0.133-0.08,0.285-0.08,0.439v2.984h-0.979L164.573,95.989L164.573,95.989z"/>
		</g>
	</g>
	<g id="Layer_11">
		<path fill="#EC7317" d="M153.826,85.622c-0.196-0.259-0.457-0.472-0.756-0.626c-1.154-0.589-2.119-0.127-2.599,0.208
			c-0.23,0.16-0.425,0.362-0.572,0.592c-0.742,1.148-0.124,2.287-0.013,2.472c0.015,0.025,0.031,0.051,0.043,0.078l0.424,0.739
			l1.394,2.428c0.047,0.077,0.143,0.12,0.232,0.094c0.071-0.019,0.082-0.056,0.097-0.079c0.019-0.028,0.029-0.055,0.037-0.083
			c0.01-0.027,0.02-0.053,0.033-0.077l1.866-3.319C154.58,86.942,154.183,86.09,153.826,85.622z M151.92,88.164
			c-0.589,0-1.066-0.446-1.066-0.995c0-0.55,0.478-0.996,1.066-0.996c0.587,0,1.064,0.446,1.064,0.996
			C152.984,87.718,152.507,88.164,151.92,88.164z"/>
		<path fill="#EC7317" d="M151.92,86.524c0.354,0,0.643,0.289,0.643,0.645c0,0.355-0.288,0.644-0.643,0.644
			c-0.358,0-0.646-0.289-0.646-0.644C151.273,86.813,151.562,86.524,151.92,86.524z"/>
	</g>
</g>
</svg>
