<svg xmlns="http://www.w3.org/2000/svg" xmlns:xlink="http://www.w3.org/1999/xlink" version="1.1" id="Layer_1" x="0px" y="0px" width="479.1px" height="266.6px" viewBox="116.82 10.915 23.955 13.331" enable-background="new 116.82 10.915 23.955 13.331" xml:space="preserve" style="&#10;    width: calc(23.955 * 20)px !important;&#10;    height: calc(13.331 * 20)px !important;&#10;">
<g id="Layer_2">
	
		<linearGradient id="SVGID_1_" gradientUnits="userSpaceOnUse" x1="8313.25" y1="-8108.75" x2="8611.9219" y2="-8108.75" gradientTransform="matrix(0.037 0 0 -0.037 -191.0741 -284.0002)">
		<stop offset="0" style="stop-color:#1D2D64"/>
		<stop offset="0.3089" style="stop-color:#1F4987"/>
		<stop offset="0.583" style="stop-color:#1C275D"/>
	</linearGradient>
	<path fill="url(#SVGID_1_)" d="M118.47,21.729c-0.606-0.983-0.954-2.132-0.954-3.359c0-2.517,1.463-4.704,3.612-5.805   c0.946-0.484,2.024-0.759,3.169-0.759c1.317,0,2.547,0.364,3.588,0.994c0,0,0.001,0,0.001,0c-1.173-1.164-2.788-1.882-4.57-1.882   c-3.585,0-6.491,2.906-6.491,6.491C116.824,19.068,117.446,20.582,118.47,21.729z"/>
</g>
<g id="Layer_8">
	
		<linearGradient id="SVGID_2_" gradientUnits="userSpaceOnUse" x1="8443.875" y1="-8127.7344" x2="8619.248" y2="-8127.7344" gradientTransform="matrix(0.037 0 0 -0.037 -191.0741 -284.0002)">
		<stop offset="0.4848" style="stop-color:#EAA637"/>
		<stop offset="0.8545" style="stop-color:#DE7933"/>
	</linearGradient>
	<path fill="url(#SVGID_2_)" d="M124.612,14.487l0.368-1.547l0.926,0.025c0.375,0.01,0.744,0.111,1.07,0.3   c0.303,0.176,0.639,0.451,0.879,0.873c0.606,1.064,0.123,2.209,0.057,2.356c-0.013,0.03-0.023,0.053-0.031,0.07   c-0.246,0.52-0.721,1.011-1.557,1.385l1.012,3.167h-1.607l-0.928-2.808h-0.784l-0.321,1.201c0,0-0.34,1.533-1.504,1.607h-0.529   l0.689-2.95l0.672-0.01l0.389-1.503c0.654-0.005,1.31-0.01,1.965-0.015c0.144-0.001,0.287-0.028,0.418-0.086   c0.002,0,0.003,0,0.004-0.001c0.047-0.021,0.09-0.044,0.131-0.069c0.35-0.213,0.555-0.602,0.555-1.012v-0.056   c-0.033-0.257-0.104-0.455-0.177-0.552c-0.03-0.04-0.065-0.077-0.065-0.077c-0.064-0.069-0.137-0.122-0.205-0.161   c-0.139-0.079-0.297-0.117-0.455-0.12L124.612,14.487z"/>
	<g id="Layer_9">
		
			<linearGradient id="SVGID_3_" gradientUnits="userSpaceOnUse" x1="8443.875" y1="-8211.6357" x2="8501.5156" y2="-8211.6357" gradientTransform="matrix(0.037 0 0 -0.037 -191.0741 -284.0002)">
			<stop offset="0.0492" style="stop-color:#EAA637"/>
			<stop offset="0.4162" style="stop-color:#DE7933"/>
		</linearGradient>
		<path fill="url(#SVGID_3_)" d="M122.041,19.494c0,0,1.121,0.062,1.756-0.369c0,0-0.319,2.303-2.135,1.99L122.041,19.494z"/>
		
			<linearGradient id="SVGID_4_" gradientUnits="userSpaceOnUse" x1="8530.75" y1="-8148.1484" x2="8619.0723" y2="-8148.1484" gradientTransform="matrix(0.037 0 0 -0.037 -191.0741 -284.0002)">
			<stop offset="0.0492" style="stop-color:#EAA637"/>
			<stop offset="0.3832" style="stop-color:#DE7933"/>
		</linearGradient>
		<path fill="url(#SVGID_4_)" d="M124.88,18.546c0,0,2.005-0.13,3.124-4.094c0,0,0.883,2.371-1.68,3.496l1.012,3.167h-1.607    L124.88,18.546z"/>
	</g>
</g>
<g id="Layer_3">
	
		<linearGradient id="SVGID_5_" gradientUnits="userSpaceOnUse" x1="8429.4531" y1="-7987.605" x2="8610.7813" y2="-7987.605" gradientTransform="matrix(0.037 0 0 -0.037 -191.0741 -284.0002)">
		<stop offset="0" style="stop-color:#1D2D64"/>
		<stop offset="0" style="stop-color:#1F4987"/>
		<stop offset="0.2747" style="stop-color:#1C275D"/>
	</linearGradient>
	<path fill="url(#SVGID_5_)" d="M121.128,12.565c0,0,1.003-1.365,2.124-1.646c0,0,2.674-0.185,4.592,1.841   C127.844,12.76,124.693,10.731,121.128,12.565z"/>
	
		<linearGradient id="SVGID_6_" gradientUnits="userSpaceOnUse" x1="8313.1465" y1="-8167.5703" x2="8355.4219" y2="-8167.5703" gradientTransform="matrix(0.037 0 0 -0.037 -191.0741 -284.0002)">
		<stop offset="0" style="stop-color:#1D2D64"/>
		<stop offset="0" style="stop-color:#1F4987"/>
		<stop offset="0.2747" style="stop-color:#1C275D"/>
	</linearGradient>
	<path fill="url(#SVGID_6_)" d="M118.386,21.633c0,0-1.859-2.862-0.123-6.261c0,0-1.191,0.435-1.429,1.683   C116.833,17.055,116.569,19.679,118.386,21.633z"/>
</g>
<g id="Layer_4">
	
		<linearGradient id="SVGID_7_" gradientUnits="userSpaceOnUse" x1="8049.3242" y1="-8484.0508" x2="8354.0801" y2="-8484.0508" gradientTransform="matrix(0.037 -0.0015 -0.0015 -0.037 -191.7712 -282.4761)">
		<stop offset="0.4769" style="stop-color:#E79F35"/>
		<stop offset="0.7589" style="stop-color:#E6902E"/>
		<stop offset="1" style="stop-color:#DF692C"/>
	</linearGradient>
	<path fill="url(#SVGID_7_)" d="M123.291,24.229c3.578,0.222,6.658-2.499,6.88-6.077c0.11-1.779-0.508-3.436-1.597-4.678v0   c0.564,1.078,0.852,2.328,0.771,3.643c-0.071,1.143-0.411,2.202-0.953,3.115c-1.231,2.076-3.505,3.402-6.017,3.247   c-1.226-0.076-2.351-0.495-3.293-1.16C120.163,23.412,121.635,24.127,123.291,24.229z"/>
	<g id="Layer_5">
		
			<linearGradient id="SVGID_8_" gradientUnits="userSpaceOnUse" x1="8307.8018" y1="-8425.6875" x2="8351.4014" y2="-8425.6875" gradientTransform="matrix(0.037 -0.0015 -0.0015 -0.037 -191.7712 -282.4761)">
			<stop offset="0.081" style="stop-color:#E69636"/>
			<stop offset="0.8358" style="stop-color:#D7622F"/>
		</linearGradient>
		<path fill="url(#SVGID_8_)" d="M128.668,19.716c0,0,1.575-3.1-0.094-6.243c0,0,1.587,1.72,1.605,4.085    C130.18,17.559,130.48,17.95,128.668,19.716z"/>
		
			<linearGradient id="SVGID_9_" gradientUnits="userSpaceOnUse" x1="8046.3438" y1="-8598.0566" x2="8221.8281" y2="-8598.0566" gradientTransform="matrix(0.037 -0.0015 -0.0015 -0.037 -191.7712 -282.4761)">
			<stop offset="0" style="stop-color:#D7622F"/>
			<stop offset="0.3771" style="stop-color:#E6902E"/>
			<stop offset="0.802" style="stop-color:#D5642A"/>
		</linearGradient>
		<path fill="url(#SVGID_9_)" d="M125.606,22.826c0,0-1.063,1.311-1.759,1.413c0,0-2.74,0.215-4.767-1.921    C119.081,22.318,121.951,24.568,125.606,22.826z"/>
	</g>
</g>
<g id="Layer_7">
	<g id="Layer_6">
		
			<linearGradient id="SVGID_10_" gradientUnits="userSpaceOnUse" x1="8361.875" y1="-8126.8584" x2="8522.2344" y2="-8126.8584" gradientTransform="matrix(0.037 0 0 -0.037 -191.0741 -284.0002)">
			<stop offset="0.3201" style="stop-color:#275394"/>
			<stop offset="0.4857" style="stop-color:#224181"/>
			<stop offset="1" style="stop-color:#142458"/>
		</linearGradient>
		<path fill="url(#SVGID_10_)" d="M124.205,14.55l0.359-1.607H122.9c-0.219-0.01-1.098-0.025-1.877,0.618    c-0.606,0.502-0.816,1.127-0.885,1.37c-0.504,2.036-1.009,4.071-1.514,6.107c0.209,0.025,0.456,0.019,0.712-0.066    c1.006-0.335,1.261-1.589,1.278-1.68c0.105-0.483,0.213-0.967,0.318-1.45l1.797,0.019l0.453-1.646l-1.815,0.019    c0.06-0.243,0.118-0.486,0.179-0.729c0.063-0.279,0.189-0.445,0.268-0.53c0.357-0.387,0.93-0.405,1.18-0.414    c0.09-0.003,0.162-0.001,0.209,0.002C123.537,14.557,123.871,14.553,124.205,14.55z"/>
	</g>
	
		<linearGradient id="SVGID_11_" gradientUnits="userSpaceOnUse" x1="8361.8906" y1="-8171.0996" x2="8484.9531" y2="-8171.0996" gradientTransform="matrix(0.037 0 0 -0.037 -191.0741 -284.0002)">
		<stop offset="0" style="stop-color:#18234E"/>
		<stop offset="0.4877" style="stop-color:#2A61A1"/>
		<stop offset="0.6173" style="stop-color:#295D9C"/>
		<stop offset="1" style="stop-color:#192854"/>
	</linearGradient>
	<path fill="url(#SVGID_11_)" d="M118.625,21.039l0.699-2.822c0,0,0.89-1.408,2.043-1.982l1.815-0.019l-0.453,1.646l-1.797-0.019   l-0.318,1.451C120.615,19.294,120.327,21.206,118.625,21.039z"/>
</g>
<g id="Layer_10">
	<g>
		<g>
			<path fill="#22285C" d="M130.625,15.752h0.984v0.178h-0.748v0.546h0.691v0.175h-0.691v0.744h-0.236V15.752L130.625,15.752z"/>
			<path fill="#22285C" d="M132.123,15.884c0.002,0.073-0.057,0.131-0.152,0.131c-0.084,0-0.143-0.059-0.143-0.131     c0-0.076,0.063-0.134,0.148-0.134C132.066,15.75,132.123,15.809,132.123,15.884z M131.857,17.396v-1.18h0.238v1.18H131.857z"/>
			<path fill="#22285C" d="M132.48,16.535c0-0.122-0.002-0.222-0.01-0.319h0.211l0.014,0.195h0.006     c0.065-0.112,0.217-0.222,0.435-0.222c0.183,0,0.464,0.097,0.464,0.502v0.705h-0.238v-0.681c0-0.19-0.078-0.348-0.305-0.348     c-0.157,0-0.279,0.1-0.32,0.219c-0.01,0.026-0.016,0.063-0.016,0.1v0.709h-0.239L132.48,16.535L132.48,16.535z"/>
			<path fill="#22285C" d="M135.111,15.665v1.426c0,0.104,0.002,0.224,0.011,0.305h-0.215l-0.011-0.205h-0.006     c-0.072,0.132-0.232,0.232-0.447,0.232c-0.318,0-0.563-0.242-0.563-0.6c-0.002-0.393,0.27-0.634,0.59-0.634     c0.2,0,0.336,0.085,0.396,0.18h0.005v-0.704H135.111z M134.872,16.696c0-0.026-0.003-0.063-0.011-0.09     c-0.035-0.137-0.166-0.249-0.345-0.249c-0.247,0-0.394,0.195-0.394,0.456c0,0.239,0.131,0.436,0.389,0.436     c0.159,0,0.307-0.095,0.35-0.256c0.008-0.029,0.011-0.059,0.011-0.092V16.696L134.872,16.696z"/>
			<path fill="#EC7317" d="M136.625,16.535c0-0.122-0.002-0.222-0.01-0.319h0.211l0.014,0.195h0.006     c0.065-0.112,0.217-0.222,0.435-0.222c0.183,0,0.464,0.097,0.464,0.502v0.705h-0.238v-0.681c0-0.19-0.079-0.348-0.305-0.348     c-0.157,0-0.279,0.1-0.32,0.219c-0.011,0.026-0.016,0.063-0.016,0.1v0.709h-0.239L136.625,16.535L136.625,16.535z"/>
			<path fill="#22285C" d="M130.625,17.7c0.119-0.021,0.29-0.034,0.453-0.034c0.252,0,0.415,0.042,0.529,0.134     c0.092,0.073,0.144,0.185,0.144,0.313c0,0.217-0.151,0.36-0.345,0.419v0.007c0.141,0.044,0.225,0.161,0.269,0.332     c0.06,0.229,0.104,0.388,0.142,0.451h-0.245c-0.03-0.046-0.07-0.188-0.122-0.393c-0.055-0.227-0.152-0.312-0.366-0.319h-0.223     v0.712h-0.236L130.625,17.7L130.625,17.7z M130.861,18.449h0.24c0.254,0,0.413-0.125,0.413-0.312     c0-0.212-0.171-0.305-0.421-0.307c-0.113,0-0.195,0.01-0.232,0.02V18.449z"/>
			<path fill="#22285C" d="M132.209,18.771c0.006,0.29,0.213,0.41,0.451,0.41c0.172,0,0.274-0.026,0.363-0.061l0.041,0.154     c-0.084,0.034-0.228,0.073-0.437,0.073c-0.405,0-0.646-0.239-0.646-0.595s0.232-0.636,0.615-0.636     c0.43,0,0.543,0.339,0.543,0.556c0,0.043-0.005,0.078-0.008,0.1H132.209z M132.91,18.617c0.002-0.137-0.063-0.349-0.331-0.349     c-0.241,0-0.348,0.2-0.366,0.349H132.91z"/>
			<path fill="#22285C" d="M133.426,18.461c0-0.122-0.003-0.222-0.011-0.319h0.212l0.014,0.195h0.006     c0.064-0.112,0.217-0.222,0.434-0.222c0.182,0,0.465,0.097,0.465,0.502v0.705h-0.239v-0.68c0-0.19-0.079-0.349-0.304-0.349     c-0.158,0-0.28,0.1-0.32,0.219c-0.012,0.027-0.017,0.063-0.017,0.1v0.709h-0.239V18.461L133.426,18.461z"/>
			<path fill="#22285C" d="M135.176,17.803v0.339h0.342v0.164h-0.342v0.636c0,0.146,0.047,0.229,0.18,0.229     c0.063,0,0.108-0.008,0.139-0.015l0.011,0.161c-0.046,0.017-0.119,0.029-0.212,0.029c-0.111,0-0.201-0.032-0.258-0.09     c-0.068-0.063-0.092-0.168-0.092-0.307v-0.644h-0.204v-0.163h0.204v-0.283L135.176,17.803z"/>
			<path fill="#22285C" d="M135.689,19.195c0-0.09,0.067-0.154,0.162-0.154c0.096,0,0.16,0.063,0.16,0.154     c0,0.088-0.063,0.154-0.162,0.154C135.754,19.349,135.689,19.283,135.689,19.195z"/>
			<path fill="#22285C" d="M137.212,19.278c-0.063,0.029-0.2,0.068-0.378,0.068c-0.396,0-0.654-0.241-0.654-0.602     c0-0.363,0.277-0.626,0.706-0.626c0.142,0,0.267,0.032,0.331,0.061l-0.055,0.166c-0.057-0.029-0.146-0.056-0.276-0.056     c-0.302,0-0.464,0.2-0.464,0.446c0,0.273,0.195,0.441,0.455,0.441c0.137,0,0.226-0.032,0.294-0.059L137.212,19.278z"/>
			<path fill="#22285C" d="M138.631,18.722c0,0.437-0.336,0.627-0.653,0.627c-0.355,0-0.63-0.234-0.63-0.607     c0-0.395,0.288-0.627,0.651-0.627C138.377,18.115,138.631,18.361,138.631,18.722z M137.59,18.734     c0,0.259,0.165,0.454,0.398,0.454c0.229,0,0.398-0.193,0.398-0.458c0-0.2-0.111-0.454-0.394-0.454S137.59,18.51,137.59,18.734z"/>
			<path fill="#22285C" d="M138.9,18.461c0-0.122-0.003-0.222-0.012-0.319h0.209l0.012,0.19h0.008     c0.073-0.112,0.195-0.217,0.412-0.217c0.18,0,0.314,0.098,0.372,0.236h0.006c0.04-0.066,0.092-0.117,0.146-0.154     c0.079-0.054,0.165-0.083,0.29-0.083c0.174,0,0.432,0.103,0.432,0.512v0.695h-0.233v-0.668c0-0.227-0.092-0.363-0.285-0.363     c-0.136,0-0.241,0.09-0.282,0.195c-0.011,0.029-0.019,0.068-0.019,0.107v0.729h-0.233v-0.707c0-0.188-0.092-0.324-0.273-0.324     c-0.15,0-0.258,0.107-0.297,0.215c-0.014,0.032-0.019,0.068-0.019,0.104v0.712H138.9V18.461L138.9,18.461z"/>
		</g>
	</g>
	<g id="Layer_11">
		<path fill="#EC7317" d="M136.337,15.988c-0.047-0.062-0.109-0.112-0.181-0.149c-0.275-0.141-0.506-0.03-0.619,0.049    c-0.055,0.039-0.102,0.086-0.137,0.141c-0.178,0.274-0.029,0.546-0.004,0.59c0.004,0.006,0.008,0.012,0.012,0.019l0.1,0.176    l0.334,0.579c0.01,0.019,0.033,0.028,0.055,0.022c0.017-0.004,0.02-0.014,0.023-0.019c0.004-0.006,0.006-0.013,0.009-0.02    c0.001-0.006,0.005-0.013,0.008-0.018l0.444-0.792C136.517,16.303,136.422,16.1,136.337,15.988z M135.882,16.595    c-0.14,0-0.254-0.106-0.254-0.237c0-0.131,0.114-0.237,0.254-0.237c0.141,0,0.254,0.106,0.254,0.237    C136.136,16.488,136.022,16.595,135.882,16.595z"/>
		<circle fill="#EC7317" cx="135.882" cy="16.357" r="0.154"/>
	</g>
</g>
</svg>