<svg version="1.1" id="Layer_1" xmlns="http://www.w3.org/2000/svg" xmlns:xlink="http://www.w3.org/1999/xlink" x="0px" y="0px"
	 width="50px" height="50px" viewBox="227.911 22.995 26.755 26.661" enable-background="new 227.911 22.995 26.755 26.661"
	 xml:space="preserve">
<g id="Layer_2">
	
		<linearGradient id="SVGID_1_" gradientUnits="userSpaceOnUse" x1="2896.6406" y1="-3960.2461" x2="3195.3047" y2="-3960.2461" gradientTransform="matrix(0.0741 0 0 -0.0741 13.3516 -259.5375)">
		<stop  offset="0" style="stop-color:#1D2D64"/>
		<stop  offset="0.3089" style="stop-color:#1F4987"/>
		<stop  offset="0.583" style="stop-color:#1C275D"/>
	</linearGradient>
	<path fill="url(#SVGID_1_)" d="M231.209,44.625c-1.212-1.966-1.908-4.264-1.908-6.719c0-5.034,2.928-9.407,7.225-11.609
		c1.891-0.969,4.047-1.518,6.336-1.518c2.636,0,5.097,0.728,7.178,1.987c0,0.001,0.001,0.001,0.001,0.001
		c-2.346-2.327-5.575-3.765-9.141-3.765c-7.17,0-12.982,5.813-12.982,12.982C227.918,39.302,229.162,42.33,231.209,44.625z"/>
</g>
<g id="Layer_8">
	
		<linearGradient id="SVGID_2_" gradientUnits="userSpaceOnUse" x1="3027.2578" y1="-3979.25" x2="3202.6396" y2="-3979.25" gradientTransform="matrix(0.0741 0 0 -0.0741 13.3516 -259.5375)">
		<stop  offset="0.4848" style="stop-color:#EAA637"/>
		<stop  offset="0.8545" style="stop-color:#DE7933"/>
	</linearGradient>
	<path fill="url(#SVGID_2_)" d="M243.494,30.14l0.738-3.095l1.848,0.05c0.752,0.02,1.491,0.221,2.142,0.599
		c0.607,0.353,1.278,0.902,1.759,1.746c1.213,2.127,0.246,4.417,0.114,4.712c-0.026,0.06-0.049,0.106-0.064,0.14
		c-0.493,1.04-1.438,2.021-3.113,2.769l2.024,6.336h-3.215l-1.854-5.618h-1.57l-0.643,2.402c0,0-0.681,3.063-3.008,3.215h-1.059
		l1.381-5.901l1.343-0.02l0.776-3.007c1.31-0.009,2.62-0.019,3.931-0.029c0.287-0.002,0.574-0.056,0.838-0.172
		c0.002,0,0.004-0.001,0.006-0.003c0.093-0.042,0.18-0.088,0.262-0.138c0.701-0.427,1.11-1.205,1.11-2.024v-0.112
		c-0.065-0.514-0.21-0.91-0.354-1.104c-0.061-0.081-0.13-0.154-0.13-0.154c-0.132-0.139-0.273-0.242-0.411-0.321
		c-0.276-0.158-0.593-0.235-0.911-0.241L243.494,30.14z"/>
	<g id="Layer_9">
		
			<linearGradient id="SVGID_3_" gradientUnits="userSpaceOnUse" x1="3027.2578" y1="-4063.1494" x2="3084.9141" y2="-4063.1494" gradientTransform="matrix(0.0741 0 0 -0.0741 13.3516 -259.5375)">
			<stop  offset="0.0492" style="stop-color:#EAA637"/>
			<stop  offset="0.4162" style="stop-color:#DE7933"/>
		</linearGradient>
		<path fill="url(#SVGID_3_)" d="M238.352,40.154c0,0,2.242,0.123,3.512-0.738c0,0-0.64,4.605-4.271,3.982L238.352,40.154z"/>
		
			<linearGradient id="SVGID_4_" gradientUnits="userSpaceOnUse" x1="3114.1484" y1="-3999.6484" x2="3202.4561" y2="-3999.6484" gradientTransform="matrix(0.0741 0 0 -0.0741 13.3516 -259.5375)">
			<stop  offset="0.0492" style="stop-color:#EAA637"/>
			<stop  offset="0.3832" style="stop-color:#DE7933"/>
		</linearGradient>
		<path fill="url(#SVGID_4_)" d="M244.029,38.258c0,0,4.011-0.26,6.248-8.189c0,0,1.765,4.742-3.36,6.993l2.024,6.335h-3.215
			L244.029,38.258z"/>
	</g>
</g>
<g id="Layer_3">
	
		<linearGradient id="SVGID_5_" gradientUnits="userSpaceOnUse" x1="3012.8516" y1="-3839.1045" x2="3194.1797" y2="-3839.1045" gradientTransform="matrix(0.0741 0 0 -0.0741 13.3516 -259.5375)">
		<stop  offset="0" style="stop-color:#1D2D64"/>
		<stop  offset="0" style="stop-color:#1F4987"/>
		<stop  offset="0.2747" style="stop-color:#1C275D"/>
	</linearGradient>
	<path fill="url(#SVGID_5_)" d="M236.526,26.297c0,0,2.004-2.729,4.25-3.293c0,0,5.346-0.369,9.183,3.682
		C249.958,26.686,243.657,22.629,236.526,26.297z"/>
	
		<linearGradient id="SVGID_6_" gradientUnits="userSpaceOnUse" x1="2896.542" y1="-4019.0508" x2="2938.7969" y2="-4019.0508" gradientTransform="matrix(0.0741 0 0 -0.0741 13.3516 -259.5375)">
		<stop  offset="0" style="stop-color:#1D2D64"/>
		<stop  offset="0" style="stop-color:#1F4987"/>
		<stop  offset="0.2747" style="stop-color:#1C275D"/>
	</linearGradient>
	<path fill="url(#SVGID_6_)" d="M231.041,44.43c0,0-3.718-5.723-0.244-12.52c0,0-2.382,0.869-2.858,3.365
		C227.937,35.275,227.408,40.523,231.041,44.43z"/>
</g>
<g id="Layer_4">
	
		<linearGradient id="SVGID_7_" gradientUnits="userSpaceOnUse" x1="2806.7783" y1="-4115.125" x2="3111.54" y2="-4115.125" gradientTransform="matrix(0.074 -0.0031 -0.0031 -0.074 12.0797 -256.4915)">
		<stop  offset="0.4769" style="stop-color:#E79F35"/>
		<stop  offset="0.7589" style="stop-color:#E6902E"/>
		<stop  offset="1" style="stop-color:#DF692C"/>
	</linearGradient>
	<path fill="url(#SVGID_7_)" d="M240.852,49.623c7.156,0.443,13.316-4.998,13.76-12.154c0.22-3.559-1.016-6.871-3.193-9.355
		c0,0,0,0.001,0.002,0.001c1.127,2.155,1.702,4.655,1.539,7.287c-0.141,2.284-0.822,4.403-1.906,6.23
		c-2.464,4.152-7.008,6.805-12.033,6.494c-2.451-0.152-4.702-0.989-6.587-2.32C234.596,47.99,237.54,49.418,240.852,49.623z"/>
	<g id="Layer_5">
		
			<linearGradient id="SVGID_8_" gradientUnits="userSpaceOnUse" x1="3065.2637" y1="-4056.7852" x2="3108.8643" y2="-4056.7852" gradientTransform="matrix(0.074 -0.0031 -0.0031 -0.074 12.0797 -256.4915)">
			<stop  offset="0.081" style="stop-color:#E69636"/>
			<stop  offset="0.8358" style="stop-color:#D7622F"/>
		</linearGradient>
		<path fill="url(#SVGID_8_)" d="M251.605,40.599c0,0,3.15-6.199-0.188-12.485c0,0,3.174,3.44,3.211,8.17
			C254.629,36.284,255.23,37.066,251.605,40.599z"/>
		
			<linearGradient id="SVGID_9_" gradientUnits="userSpaceOnUse" x1="2803.7891" y1="-4229.1387" x2="2979.2734" y2="-4229.1387" gradientTransform="matrix(0.074 -0.0031 -0.0031 -0.074 12.0797 -256.4915)">
			<stop  offset="0" style="stop-color:#D7622F"/>
			<stop  offset="0.3771" style="stop-color:#E6902E"/>
			<stop  offset="0.802" style="stop-color:#D5642A"/>
		</linearGradient>
		<path fill="url(#SVGID_9_)" d="M245.482,46.819c0,0-2.127,2.62-3.519,2.825c0,0-5.479,0.43-9.532-3.841
			C232.432,45.805,238.171,50.303,245.482,46.819z"/>
	</g>
</g>
<g id="Layer_7">
	<g id="Layer_6">
		
			<linearGradient id="SVGID_10_" gradientUnits="userSpaceOnUse" x1="2945.2734" y1="-3978.3652" x2="3105.6406" y2="-3978.3652" gradientTransform="matrix(0.0741 0 0 -0.0741 13.3516 -259.5375)">
			<stop  offset="0.3201" style="stop-color:#275394"/>
			<stop  offset="0.4857" style="stop-color:#224181"/>
			<stop  offset="1" style="stop-color:#142458"/>
		</linearGradient>
		<path fill="url(#SVGID_10_)" d="M242.681,30.266l0.719-3.215h-3.329c-0.436-0.02-2.196-0.05-3.752,1.237
			c-1.214,1.004-1.634,2.253-1.771,2.739c-1.009,4.071-2.018,8.142-3.027,12.213c0.418,0.051,0.912,0.037,1.424-0.133
			c2.012-0.669,2.522-3.178,2.556-3.359c0.212-0.967,0.424-1.934,0.636-2.9l3.593,0.038l0.908-3.291l-3.632,0.038
			c0.119-0.487,0.238-0.973,0.357-1.459c0.127-0.559,0.38-0.892,0.537-1.061c0.714-0.774,1.857-0.811,2.359-0.828
			c0.179-0.007,0.325-0.001,0.417,0.004C241.344,30.28,242.013,30.272,242.681,30.266z"/>
	</g>
	
		<linearGradient id="SVGID_11_" gradientUnits="userSpaceOnUse" x1="2945.2734" y1="-4022.6035" x2="3068.3594" y2="-4022.6035" gradientTransform="matrix(0.0741 0 0 -0.0741 13.3516 -259.5375)">
		<stop  offset="0" style="stop-color:#18234E"/>
		<stop  offset="0.4877" style="stop-color:#2A61A1"/>
		<stop  offset="0.6173" style="stop-color:#295D9C"/>
		<stop  offset="1" style="stop-color:#192854"/>
	</linearGradient>
	<path fill="url(#SVGID_11_)" d="M231.521,43.245l1.399-5.644c0,0,1.779-2.817,4.086-3.964l3.632-0.038l-0.908,3.291l-3.593-0.038
		l-0.636,2.9C235.501,39.753,234.924,43.578,231.521,43.245z"/>
</g>
<g id="Layer_10">
	<g id="Layer_11">
	</g>
</g>
</svg>