<svg xmlns="http://www.w3.org/2000/svg" version="1.1" xmlns:xlink="http://www.w3.org/1999/xlink" width="512" height="512" x="0" y="0" viewBox="0 0 449.446 399.603" style="enable-background:new 0 0 512 512" xml:space="preserve" class=""><g><path d="M124.571 362.552h200.303v11.059H124.571zM61.26 396.85a2.752 2.752 0 0 0 2.753 2.752h43.221a2.752 2.752 0 0 0 2.753-2.752v-34.298H61.26zM339.46 396.85a2.752 2.752 0 0 0 2.751 2.752h43.222a2.752 2.752 0 0 0 2.752-2.752v-34.298H339.46zM435.52 130.504a23.092 23.092 0 0 0-8.966-9.63l-14.683-8.612-7.487-4.392V23.122a8.697 8.697 0 0 0-8.698-8.697h-58.653V0h-224.62v14.425H53.759a8.697 8.697 0 0 0-8.697 8.697v84.748l-7.488 4.392-14.681 8.613a23.093 23.093 0 0 0-8.967 9.629C6.468 131.15 0 133.566 0 137.768v56.737c0 9.929 36.106 9.929 36.106 0v-56.737c0-3.639-4.853-5.938-10.996-6.91a13.587 13.587 0 0 1 2.517-1.91l9.947-5.836 7.488-4.392v226.835a9.51 9.51 0 0 0 9.51 9.51h340.303a9.51 9.51 0 0 0 9.509-9.51V118.72l7.487 4.392 9.949 5.835c.921.54 1.76 1.187 2.517 1.911-6.143.972-10.997 3.271-10.997 6.91v56.737c0 9.929 36.106 9.929 36.106 0v-56.737c0-4.202-6.468-6.618-13.926-7.264zM144.411 72.538a2.942 2.942 0 0 1-2.942-2.942V38.799a2.942 2.942 0 0 1 2.942-2.942h160.623a2.942 2.942 0 0 1 2.942 2.942v30.797a2.942 2.942 0 0 1-2.942 2.942zM62.487 98.92a4.459 4.459 0 0 1 4.459-4.459h154.033V244.44H66.946a4.459 4.459 0 0 1-4.459-4.458zm315.507 199.22a1.9 1.9 0 0 1-1.899 1.9h-55.457a1.899 1.899 0 0 1-1.899-1.9v-20.492c0-1.05.85-1.9 1.9-1.9h55.456a1.9 1.9 0 0 1 1.9 1.9zm-304.643 1.9a1.899 1.899 0 0 1-1.9-1.9v-20.492c0-1.05.85-1.9 1.9-1.9h55.456a1.9 1.9 0 0 1 1.9 1.9v20.492a1.9 1.9 0 0 1-1.9 1.9zm186.77 35.456a1.982 1.982 0 0 1-1.983 1.982h-66.83a1.982 1.982 0 0 1-1.982-1.982V319.61c0-1.095.887-1.982 1.981-1.982h66.831c1.095 0 1.982.887 1.982 1.982zM71.677 316.403v-4.306h59.023v4.306zm306.31 0h-59.022v-4.306h59.023zm8.97-76.423a4.459 4.459 0 0 1-4.458 4.46H228.466V94.46H382.5a4.459 4.459 0 0 1 4.458 4.459z" fill="#ff3600" opacity="1" data-original="#000000" class=""></path><path d="M339.242 209.195c-3.247-2.872-6.39-3.705-8.57-3.877a7.77 7.77 0 0 0-.926-.06h-38.634c-.314 0-.622.024-.927.06-2.18.172-5.321 1.005-8.568 3.877-5.477 4.844-9.32 13.862-11.568 27.209h20.393c.233-10.833 9.1-19.576 19.987-19.576s19.754 8.744 19.987 19.576h20.393c-2.248-13.348-6.09-22.366-11.567-27.21z" fill="#ff3600" opacity="1" data-original="#000000" class=""></path><path d="M310.43 222.828c-7.58 0-13.757 6.052-13.988 13.576h27.974c-.231-7.524-6.408-13.576-13.987-13.576zM288.454 167.585c.081.607.404 1.193.94 1.75a22.439 22.439 0 0 0-1.464 7.989c0 12.428 10.074 22.5 22.5 22.5 12.424 0 22.499-10.072 22.499-22.5 0-2.814-.521-5.506-1.465-7.989.536-.557.859-1.143.94-1.75 2.619.092 4.632-.33 5.52-1.732 2.983-4.703-4.661-24.334-27.494-24.334-22.834 0-30.479 19.631-27.496 24.334.888 1.402 2.902 1.824 5.52 1.732zm21.976-21.972a4.501 4.501 0 1 1-.002 9.002 4.501 4.501 0 0 1 .002-9.002zm0 11.334c12.15 0 21.999 3.135 21.999 7 0 .575-.223 1.133-.633 1.667-2.351-3.06-11.023-5.333-21.366-5.333-10.345 0-19.017 2.273-21.367 5.333-.41-.534-.633-1.092-.633-1.667 0-3.865 9.85-7 22-7z" fill="#ff3600" opacity="1" data-original="#000000" class=""></path></g></svg>