<svg xmlns="http://www.w3.org/2000/svg" version="1.1" xmlns:xlink="http://www.w3.org/1999/xlink" width="512" height="512" x="0" y="0" viewBox="0 0 64 64" style="enable-background:new 0 0 512 512" xml:space="preserve" class=""><g><circle cx="52" cy="47" r="1" fill="#ff3600" opacity="1" data-original="#000000" class=""></circle><path d="M52 41a6 6 0 1 0 6 6 6 6 0 0 0-6-6zm0 9a3 3 0 1 1 3-3 3.003 3.003 0 0 1-3 3z" fill="#ff3600" opacity="1" data-original="#000000" class=""></path><circle cx="12" cy="47" r="1" fill="#ff3600" opacity="1" data-original="#000000" class=""></circle><path d="M12 41a6 6 0 1 0 6 6 6 6 0 0 0-6-6zm0 9a3 3 0 1 1 3-3 3.003 3.003 0 0 1-3 3zM45 24v4.17a1.001 1.001 0 0 0 1 1h8.231L52.468 23H46a1.001 1.001 0 0 0-1 1z" fill="#ff3600" opacity="1" data-original="#000000" class=""></path><path d="M58 14a3 3 0 0 0-3-3H4a3 3 0 0 0-3 3v30a3 3 0 0 0 3 3 8 8 0 0 1 16 0h1V22a1 1 0 0 1 1-1h11a1 1 0 0 1 1 1v25h5V18a1 1 0 0 1 1-1h15a3 3 0 0 0 3-3zm-43 8a1 1 0 0 1-1 1H7a1 1 0 0 1-1-1v-5a1 1 0 0 1 1-1h7a1 1 0 0 1 1 1z" fill="#ff3600" opacity="1" data-original="#000000" class=""></path><path d="M8 18h5v3H8zM60 38a1.001 1.001 0 0 0 1 1h2v-2h-2a1.001 1.001 0 0 0-1 1z" fill="#ff3600" opacity="1" data-original="#000000" class=""></path><path d="M61 41a3 3 0 0 1 0-6h1.767a3.991 3.991 0 0 0-2.797-2.538l-5.167-1.292H46a3.003 3.003 0 0 1-3-3V24a3.003 3.003 0 0 1 3-3h5.897l-.571-2H41v28h3a8 8 0 0 1 16 0 3.003 3.003 0 0 0 3-3v-3zm-15-4h-2a1 1 0 0 1 0-2h2a1 1 0 0 1 0 2zM23 23h9v24h-9z" fill="#ff3600" opacity="1" data-original="#000000" class=""></path></g></svg>